<?xml version="1.0" encoding="utf-8"?>
<!-- Generator: Adobe Illustrator 19.2.1, SVG Export Plug-In . SVG Version: 6.00 Build 0)  -->
<svg version="1.1" id="Calque_1" xmlns="http://www.w3.org/2000/svg" xmlns:xlink="http://www.w3.org/1999/xlink" x="0px" y="0px"
	 viewBox="0 0 13.1 12.1" style="enable-background:new 0 0 13.1 12.1;" xml:space="preserve">
<style type="text/css">
	.st0{fill:#6AC8EB;}
	.st1{fill:#1DA1CC;}
	.st2{fill:#197BA2;}
	.st3{fill:#BCE1E1;}
	.st4{fill:#99D1CB;}
	.st5{fill:#6DC1B3;}
	.st6{fill:#F6BED8;}
	.st7{fill:#EE79A5;}
	.st8{fill:#E83B6F;}
	.st9{fill:#FDFCED;}
	.st10{fill:#FBF8D6;}
	.st11{fill:#EFF0BD;}
</style>
<g>
	<g>
		<g>
			<g>
				<path class="st0" d="M-139.9,7.7l-17-29.5c5.4-3.1,10.8-4.6,17-4.6V7.7z"/>
			</g>
		</g>
		<g>
			<g>
				<path class="st1" d="M-139.9,7.7l-29.5-17c3.1-5.4,7-9.3,12.5-12.5L-139.9,7.7z"/>
			</g>
		</g>
		<g>
			<g>
				<path class="st2" d="M-139.9,7.7h-34c0-6.3,1.4-11.6,4.6-17L-139.9,7.7z"/>
			</g>
		</g>
		<g>
			<g>
				<path class="st3" d="M-139.9,7.7l-29.5,17c-3.1-5.4-4.6-10.8-4.6-17H-139.9z"/>
			</g>
		</g>
		<g>
			<g>
				<path class="st4" d="M-139.9,7.7l-17,29.5c-5.4-3.1-9.3-7-12.5-12.5L-139.9,7.7z"/>
			</g>
		</g>
		<g>
			<g>
				<path class="st5" d="M-139.9,7.7v34c-6.3,0-11.6-1.4-17-4.6L-139.9,7.7z"/>
			</g>
		</g>
		<g>
			<g>
				<path class="st6" d="M-139.9,7.7l17,29.5c-5.4,3.1-10.8,4.6-17,4.6V7.7z"/>
			</g>
		</g>
		<g>
			<g>
				<path class="st7" d="M-139.9,7.7l29.5,17c-3.1,5.4-7,9.3-12.5,12.5L-139.9,7.7z"/>
			</g>
		</g>
		<g>
			<g>
				<path class="st8" d="M-139.9,7.7h34c0,6.3-1.4,11.6-4.6,17L-139.9,7.7z"/>
			</g>
		</g>
		<g>
			<g>
				<path class="st9" d="M-139.9,7.7l29.5-17c3.1,5.4,4.6,10.8,4.6,17H-139.9z"/>
			</g>
		</g>
		<g>
			<g>
				<path class="st10" d="M-139.9,7.7l17-29.5c5.4,3.1,9.3,7,12.5,12.5L-139.9,7.7z"/>
			</g>
		</g>
		<g>
			<g>
				<path class="st11" d="M-139.9,7.7v-34c6.3,0,11.6,1.4,17,4.6L-139.9,7.7z"/>
			</g>
		</g>
	</g>
</g>
<circle class="st4" cx="6.7" cy="6.1" r="4.8"/>
</svg>
